# xmcd
#
# Track frame offsets:
#	150
#	15945
#	30867
#	47830
#	67422
#	83282
#	95770
#	110745
#	128205
#	144370
#	168242
#	186752
#
# Disc length: 2679 seconds
# Revision: 10
# Processed by: cddbd v1.5.2PL0 Copyright (c) Steve Scherf et al.
# Submitted via: dBpowerAMP V12.0
#
DISCID=960a750c
DTITLE=The Wreckers - Stand Still, Look Pretty
DYEAR=2006
DGENRE=Country*
TTITLE0=Leave The Pieces
TTITLE1=Way Back Home
TTITLE2=The Good Kind
TTITLE3=Tennessee
TTITLE4=My, Oh My
TTITLE5=Stand Still, Look Pretty
TTITLE6=Cigarettes
TTITLE7=Hard To Love You
TTITLE8=Lay Me Down
TTITLE9=One More Girl
TTITLE10=Rain
TTITLE11=Crazy People
EXTD=
EXTT0=
EXTT1=
EXTT2=
EXTT3=
EXTT4=
EXTT5=
EXTT6=
EXTT7=
EXTT8=
EXTT9=
EXTT10=
EXTT11=
PLAYORDER=
